<?xml version="1.0" encoding="UTF-8" standalone="no"?>
<svg
   xmlns:dc="http://purl.org/dc/elements/1.1/"
   xmlns:cc="http://creativecommons.org/ns#"
   xmlns:rdf="http://www.w3.org/1999/02/22-rdf-syntax-ns#"
   xmlns:svg="http://www.w3.org/2000/svg"
   xmlns="http://www.w3.org/2000/svg"
   xmlns:sodipodi="http://sodipodi.sourceforge.net/DTD/sodipodi-0.dtd"
   xmlns:inkscape="http://www.inkscape.org/namespaces/inkscape"
   width="124"
   height="32"
   viewBox="0 0 32.808333 8.4666669"
   version="1.1"
   id="svg856"
   inkscape:version="1.0.2-2 (e86c870879, 2021-01-15)"
   sodipodi:docname="FreeCAD-wordmark.svg">
  <defs
     id="defs850" />
  <sodipodi:namedview
     id="base"
     pagecolor="#ffffff"
     bordercolor="#666666"
     borderopacity="1.0"
     inkscape:pageopacity="0.0"
     inkscape:pageshadow="2"
     inkscape:zoom="2.8"
     inkscape:cx="40.841114"
     inkscape:cy="43.570694"
     inkscape:document-units="px"
     inkscape:current-layer="layer1"
     inkscape:document-rotation="0"
     showgrid="false"
     units="px"
     inkscape:window-width="1267"
     inkscape:window-height="843"
     inkscape:window-x="122"
     inkscape:window-y="0"
     inkscape:window-maximized="0" />
  <metadata
     id="metadata853">
    <rdf:RDF>
      <cc:Work
         rdf:about="">
        <dc:format>image/svg+xml</dc:format>
        <dc:type
           rdf:resource="http://purl.org/dc/dcmitype/StillImage" />
        <dc:title></dc:title>
      </cc:Work>
    </rdf:RDF>
  </metadata>
  <g
     inkscape:label="Layer 1"
     inkscape:groupmode="layer"
     id="layer1">
    <path
       d="M -2.5729063e-4,7.1548659 V 1.3118009 H 2.9647643 V 1.841551 H 0.58484141 V 3.952645 H 2.8777853 v 0.52975 H 0.58484141 v 2.6724709 z m 3.64980139063,0 V 2.8298906 h 0.5850987 v 0.616724 C 4.4639386,2.9722117 4.8355514,2.7587307 5.4601853,2.7271032 v 0.577191 C 4.6457908,3.3833612 4.2346428,3.8261372 4.2346428,4.6326226 V 7.1548659 Z M 10.136724,5.1860931 H 6.2228996 c 0.047436,0.8539255 0.7906691,1.533903 1.684127,1.533903 0.6562607,0 1.2650777,-0.3953359 1.5101833,-0.9883396 H 10.026027 C 9.7097592,6.6409292 8.8637451,7.2576532 7.9228435,7.2576532 c -1.2808875,0 -2.2850426,-1.0041537 -2.2850426,-2.2850419 0,-1.2571677 0.9883382,-2.2455081 2.2375989,-2.2455081 0.8539298,0 1.6208806,0.4506832 2.0004017,1.1781016 0.1897605,0.3637086 0.2609225,0.7036973 0.2609225,1.2808883 z M 6.2387094,4.6563429 h 3.312916 C 9.3539563,3.7945104 8.7135127,3.2647604 7.8753998,3.2647604 c -0.8222958,0 -1.4785565,0.5613768 -1.6366904,1.3915825 z m 9.0404826,0.5297502 h -3.913853 c 0.04744,0.8539255 0.790676,1.533903 1.684212,1.533903 0.656304,0 1.265071,-0.3953359 1.510027,-0.9883396 h 0.609024 c -0.316268,0.9092727 -1.162496,1.5259967 -2.103291,1.5259967 -1.280916,0 -2.285071,-1.0041537 -2.285071,-2.2850419 0,-1.2571677 0.988345,-2.2455081 2.237527,-2.2455081 0.85398,0 1.620874,0.4506832 2.000452,1.1781016 0.189918,0.3637086 0.260973,0.7036973 0.260973,1.2808883 z M 11.381156,4.6563429 H 14.6942 C 14.496531,3.7945104 13.85598,3.2647604 13.017767,3.2647604 c -0.822224,0 -1.478478,0.5613768 -1.636611,1.3915825 z m 8.99296,0.8697389 h 1.273086 c -0.458642,1.0674066 -1.494523,1.7315714 -2.696298,1.7315714 -1.707695,0 -3.075604,-1.3520487 -3.075604,-3.0440863 0,-1.6525046 1.351892,-3.0045533 3.00455,-3.0045533 0.735373,0 1.43897,0.2530148 1.984427,0.711605 0.371827,0.3162683 0.561481,0.5771902 0.782925,1.0674065 H 20.437419 C 20.042088,2.4740885 19.583447,2.2527004 18.903618,2.2527004 c -0.601009,0 -1.099186,0.2213881 -1.454989,0.6404445 -0.300508,0.347895 -0.482153,0.8539254 -0.482153,1.3283283 0,1.091127 0.877491,1.9924932 1.96066,1.9924932 0.56148,0 0.964826,-0.1897613 1.44698,-0.6878846 z m 1.395042,1.6287841 2.435068,-5.843065 h 0.853973 l 2.451084,5.843065 H 26.315525 L 25.690742,5.6446826 h -2.079523 l -0.648302,1.5101833 z m 2.237399,-2.5459638 h 1.249311 L 24.631341,2.8377977 Z m 4.12131,2.5459638 v -5.843065 h 1.336389 c 0.956562,0 1.660416,0.1502275 2.134817,0.4585895 0.774652,0.4981233 1.209518,1.3915827 1.209518,2.4748032 0,1.2097277 -0.553471,2.1743475 -1.478506,2.6092166 -0.466393,0.2134817 -0.980329,0.3004557 -1.842318,0.3004557 z m 1.083168,-1.0357805 h 0.237205 c 0.648552,0 1.099185,-0.086974 1.423204,-0.2609219 0.521952,-0.2846415 0.846228,-0.9092719 0.846228,-1.6129699 0,-0.7669515 -0.355802,-1.3994896 -0.933043,-1.6841313 C 30.452594,2.4029279 30.096792,2.3475814 29.424721,2.3475814 h -0.213686 z"
       fill="#212529"
       id="path5"
       style="stroke-width:0.0258389" />
  </g>
</svg>
